ffmpeg started on 2016-11-27 at 08:44:19
Report written to "Output/NVENCh264/results/ffmpeg/crowd_run_2160p50llhq6000k.log"
Command line:
Tools/ffmpeg/ffmpeg -benchmark -y -i Input/y4m/crowd_run_2160p50.y4m -c:v h264_nvenc -preset llhq -b:v 6000k -an Output/NVENCh264/encoded/crowd_run_2160p50llhq6000k.mkv
ffmpeg version N-82227-gdb23fde Copyright (c) 2000-2016 the FFmpeg developers
  built with gcc 5.4.0 (Ubuntu 5.4.0-6ubuntu1~16.04.2) 20160609
  configuration: --prefix=/home/jaroslav/ffmpeg_build --pkg-config-flags=--static --extra-cflags=-I/home/jaroslav/ffmpeg_build/include --extra-ldflags=-L/home/jaroslav/ffmpeg_build/lib --bindir=/home/jaroslav/bin --enable-gpl --enable-libass --enable-libfdk-aac --enable-libfreetype --enable-libmp3lame --enable-libopus --enable-libtheora --enable-libvorbis --enable-libvpx --enable-libx264 --enable-libx265 --enable-nvenc --enable-libmfx --enable-libxvid --enable-libgsm --enable-libopencore-amrnb --enable-version3 --enable-nonfree
  libavutil      55. 35.100 / 55. 35.100
  libavcodec     57. 66.101 / 57. 66.101
  libavformat    57. 57.100 / 57. 57.100
  libavdevice    57.  2.100 / 57.  2.100
  libavfilter     6. 66.100 /  6. 66.100
  libswscale      4.  3.100 /  4.  3.100
  libswresample   2.  4.100 /  2.  4.100
  libpostproc    54.  2.100 / 54.  2.100
Input #0, yuv4mpegpipe, from 'Input/y4m/crowd_run_2160p50.y4m':
  Duration: 00:00:10.00, start: 0.000000, bitrate: 4976642 kb/s
    Stream #0:0: Video: rawvideo (I420 / 0x30323449), yuv420p(progressive), 3840x2160, SAR 1:1 DAR 16:9, 50 fps, 50 tbr, 50 tbn, 50 tbc
[h264_nvenc @ 0x42651c0] The variable bitrate rate-control requires the 'qmin' and/or 'qmax' option set.
Output #0, matroska, to 'Output/NVENCh264/encoded/crowd_run_2160p50llhq6000k.mkv':
  Metadata:
    encoder         : Lavf57.57.100
    Stream #0:0: Video: h264 (h264_nvenc) (Main) (H264 / 0x34363248), yuv420p, 3840x2160 [SAR 1:1 DAR 16:9], q=-1--1, 6000 kb/s, 50 fps, 1k tbn, 50 tbc
    Metadata:
      encoder         : Lavc57.66.101 h264_nvenc
    Side data:
      cpb: bitrate max/min/avg: 0/0/6000000 buffer size: 12000000 vbv_delay: -1
Stream mapping:
  Stream #0:0 -> #0:0 (rawvideo (native) -> h264 (h264_nvenc))
Press [q] to stop, [?] for help
frame=   13 fps=0.0 q=0.0 size=       0kB time=00:00:00.00 bitrate=N/A speed=   0x    frame=   29 fps= 28 q=0.0 size=       0kB time=00:00:00.00 bitrate=N/A speed=   0x    frame=   46 fps= 29 q=49.0 size=       1kB time=00:00:00.30 bitrate=  19.9kbits/s speed=0.193x    frame=   64 fps= 31 q=48.0 size=       1kB time=00:00:00.66 bitrate=   9.0kbits/s speed=0.318x    frame=   82 fps= 32 q=49.0 size=       1kB time=00:00:01.02 bitrate=   5.9kbits/s speed=0.393x    frame=  100 fps= 32 q=47.0 size=       1kB time=00:00:01.38 bitrate=   4.3kbits/s speed=0.443x    frame=  117 fps= 32 q=48.0 size=       1kB time=00:00:01.72 bitrate=   3.5kbits/s speed=0.474x    frame=  129 fps= 26 q=48.0 size=       1kB time=00:00:01.96 bitrate=   3.0kbits/s speed=0.398x    frame=  130 fps= 15 q=48.0 size=       1kB time=00:00:01.98 bitrate=   3.0kbits/s speed=0.228x    frame=  131 fps= 12 q=48.0 size=       1kB time=00:00:02.00 bitrate=   3.0kbits/s speed=0.183x    frame=  148 fps= 13 q=48.0 size=       1kB time=00:00:02.34 bitrate=   2.6kbits/s speed=0.205x    frame=  166 fps= 14 q=48.0 size=       1kB time=00:00:02.70 bitrate=   2.2kbits/s speed=0.226x    frame=  183 fps= 15 q=48.0 size=       1kB time=00:00:03.04 bitrate=   2.0kbits/s speed=0.244x    frame=  200 fps= 15 q=48.0 size=       1kB time=00:00:03.38 bitrate=   1.8kbits/s speed=0.261x    frame=  217 fps= 16 q=48.0 size=       1kB time=00:00:03.72 bitrate=   1.6kbits/s speed=0.276x    frame=  234 fps= 17 q=49.0 size=       1kB time=00:00:04.06 bitrate=   1.5kbits/s speed=0.29x    frame=  252 fps= 17 q=46.0 size=       1kB time=00:00:04.42 bitrate=   1.4kbits/s speed=0.304x    frame=  270 fps= 18 q=47.0 size=       1kB time=00:00:04.78 bitrate=   1.2kbits/s speed=0.318x    frame=  285 fps= 18 q=49.0 size=    3559kB time=00:00:05.08 bitrate=5737.6kbits/s speed=0.327x    frame=  297 fps= 18 q=46.0 size=    3559kB time=00:00:05.32 bitrate=5478.9kbits/s speed=0.33x    frame=  306 fps= 18 q=47.0 size=    3559kB time=00:00:05.50 bitrate=5299.6kbits/s speed=0.33x    frame=  324 fps= 19 q=47.0 size=    3559kB time=00:00:05.86 bitrate=4974.1kbits/s speed=0.341x    frame=  332 fps= 19 q=47.0 size=    3559kB time=00:00:06.02 bitrate=4841.9kbits/s speed=0.341x    frame=  350 fps= 19 q=48.0 size=    3559kB time=00:00:06.38 bitrate=4568.7kbits/s speed=0.351x    frame=  368 fps= 20 q=47.0 size=    3559kB time=00:00:06.74 bitrate=4324.7kbits/s speed=0.36x    frame=  386 fps= 20 q=47.0 size=    3559kB time=00:00:07.10 bitrate=4105.5kbits/s speed=0.369x    frame=  404 fps= 20 q=47.0 size=    3559kB time=00:00:07.46 bitrate=3907.4kbits/s speed=0.378x    frame=  421 fps= 21 q=49.0 size=    3559kB time=00:00:07.80 bitrate=3737.1kbits/s speed=0.381x    frame=  439 fps= 21 q=49.0 size=    3559kB time=00:00:08.16 bitrate=3572.2kbits/s speed=0.388x    frame=  449 fps= 21 q=49.0 size=    3559kB time=00:00:08.36 bitrate=3486.8kbits/s speed=0.388x    frame=  467 fps= 21 q=49.0 size=    3559kB time=00:00:08.72 bitrate=3342.8kbits/s speed=0.395x    frame=  485 fps= 21 q=49.0 size=    3559kB time=00:00:09.08 bitrate=3210.3kbits/s speed=0.402x    frame=  500 fps= 22 q=49.0 Lsize=    7267kB time=00:00:09.98 bitrate=5964.2kbits/s speed=0.433x    
video:7262kB audio:0kB subtitle:0kB other streams:0kB global headers:0kB muxing overhead: 0.059435%
bench: utime=1.132s
bench: maxrss=1408508kB
